{"title":"Bad.Grandpa.2013.HDRiP.x264.AC3 TiTAN","uid":9428037,"size":1578879292,"categoryP":"video","categoryS":"movies","magnet":"?xt=urn:btih:4aba6a23c323ef6f7f04452655d45f15c1a238e0&amp;dn=+Bad.Grandpa.2013.HDRiP.x264.AC3+TiTAN&amp;tr=udp%3A%2F%2Ftracker.openbittorrent.com%3A80&amp;tr=udp%3A%2F%2Fopen.demonii.com%3A1337&amp;tr=udp%3A%2F%2Ftracker.coppersurfer.tk%3A6969&amp;tr=udp%3A%2F%2Fexodus.desync.com%3A6969","seeders":5,"leechers":2,"uploader":"Acesn8s","files":-1,"time":1388746282,"description":"Bad.Grandpa.2013.HDRIP.x264.AC3 TiTAN\n\n\n**********************************************************************************\n\nFormat                                   : Matroska\nFormat version                           : Version 2\nFile size                                : 1.47 GiB\nDuration                                 : 1h 32mn\nOverall bit rate                         : 2 285 Kbps\nEncoded date                             : UTC 2014-01-03 08:38:43\nWriting application                      : mkvmerge v6.6.0  \nWriting library                          : libebml v1.3.0 + libmatroska v1.4.1\n\n**********************************************************************************\n\nVideo\nID                                       : 1\nFormat                                   : AVC\nFormat/Info                              : Advanced Video Codec\nFormat profile                           : &lt;a class=&quot;__cf_email__&quot; href=&quot;/cdn-cgi/l/email-protection&quot; data-cfemail=&quot;f7ba969e99b7bbc3d9c7&quot;&gt;[email&amp;#160;protected]&lt;/a&gt;&lt;script cf-hash='f9e31' type=&quot;text/javascript&quot;&gt;\n/* &lt;![CDATA[ */!function(){try{var t=&quot;currentScript&quot;in document?document.currentScript:function(){for(var t=document.getElementsByTagName(&quot;script&quot;),e=t.length;e--;)if(t[e].getAttribute(&quot;cf-hash&quot;))return t[e]}();if(t&amp;&amp;t.previousSibling){var e,r,n,i,c=t.previousSibling,a=c.getAttribute(&quot;data-cfemail&quot;);if(a){for(e=&quot;&quot;,r=parseInt(a.substr(0,2),16),n=2;a.length-n;n+=2)i=parseInt(a.substr(n,2),16)^r,e+=String.fromCharCode(i);e=document.createTextNode(e),c.parentNode.replaceChild(e,c)}}}catch(u){}}();/* ]]&gt; */&lt;/script&gt;\nFormat settings, CABAC                   : Yes\nFormat settings, ReFrames                : 4 frames\nCodec ID                                 : V_MPEG4/ISO/AVC\nDuration                                 : 1h 32mn\nBit rate                                 : 1 900 Kbps\nWidth                                    : 720 pixels\nHeight                                   : 404 pixels\nDisplay aspect ratio                     : 16:9\nOriginal display aspect ratio            : 16:9\nFrame rate mode                          : Variable\nFrame rate                               : 23.976 fps\nColor space                              : YUV\nChroma subsampling                       : 4:2:0\nBit depth                                : 8 bits\nScan type                                : Progressive\nBits/(Pixel*Frame)                       : 0.272\nStream size                              : 1.19 GiB (81%)\nWriting library                          : x264 core 130 r2273 b3065e6\nLanguage                                 : English\nDefault                                  : Yes\nForced                                   : No\n\n**********************************************************************************\n\nAudio\nID                                       : 2\nFormat                                   : AC-3\nFormat/Info                              : Audio Coding 3\nMode extension                           : CM (complete main)\nFormat settings, Endianness              : Big\nCodec ID                                 : A_AC3\nDuration                                 : 1h 32mn\nBit rate mode                            : Constant\nBit rate                                 : 384 Kbps\nChannel(s)                               : 6 channels\nChannel positions                        : Front: L C R, Side: L R, LFE\nSampling rate                            : 48.0 KHz\nBit depth                                : 16 bits\nCompression mode                         : Lossy\nStream size                              : 253 MiB (17%)\nLanguage                                 : English\nDefault                                  : Yes\nForced                                   : No\n\n**********************************************************************************\n\nIMDb:\n &lt;a href=&quot;\nhttp://www.imdb.com/title/tt3063516/&quot; rel=&quot;nofollow&quot; target=&quot;_NEW&quot;&gt;\nhttp://www.imdb.com/title/tt3063516/&lt;/a&gt;\n\n**********************************************************************************\n\nCast: \n\nJohnny Knoxville, Jackson Nicoll, Greg Harris \n\n\nPlot:\n\n86-year-old Irving Zisman takes a trip from Nebraska to North Carolina \nto take his 8 year-old grandson, Billy, back to his real father. \n\n**********************************************************************************\n\nScreens:\n &lt;a href=&quot;\nhttp://s29.postimg.org/dyjz8ti7r/G2n4q_J4.png&quot; rel=&quot;nofollow&quot; target=&quot;_NEW&quot;&gt;\nhttp://s29.postimg.org/dyjz8ti7r/G2n4q_J4.png&lt;/a&gt;\n &lt;a href=&quot;\nhttp://s29.postimg.org/8lv4uoubb/G6_Hj_R6q.png&quot; rel=&quot;nofollow&quot; target=&quot;_NEW&quot;&gt;\nhttp://s29.postimg.org/8lv4uoubb/G6_Hj_R6q.png&lt;/a&gt;\n &lt;a href=&quot;\nhttp://s29.postimg.org/epcpelkl3/He_W8y_Zl.png&quot; rel=&quot;nofollow&quot; target=&quot;_NEW&quot;&gt;\nhttp://s29.postimg.org/epcpelkl3/He_W8y_Zl.png&lt;/a&gt;\n &lt;a href=&quot;\nhttp://s29.postimg.org/639fu08l3/ITXn_Zqc.png&quot; rel=&quot;nofollow&quot; target=&quot;_NEW&quot;&gt;\nhttp://s29.postimg.org/639fu08l3/ITXn_Zqc.png&lt;/a&gt; ","torrent":{"xt":"urn:btih:4aba6a23c323ef6f7f04452655d45f15c1a238e0","amp;dn":"+Bad.Grandpa.2013.HDRiP.x264.AC3+TiTAN","amp;tr":["udp%3A%2F%2Ftracker.openbittorrent.com%3A80","udp%3A%2F%2Fopen.demonii.com%3A1337","udp%3A%2F%2Ftracker.coppersurfer.tk%3A6969","udp%3A%2F%2Fexodus.desync.com%3A6969"],"infoHash":"4aba6a23c323ef6f7f04452655d45f15c1a238e0","infoHashBuffer":{"type":"Buffer","data":[74,186,106,35,195,35,239,111,127,4,69,38,85,212,95,21,193,162,56,224]},"announce":[],"urlList":[]}}